name ./resultDataOpenSim/trcMotMarkerGrf/sub06/grf-01-03.mot
datacolumns 19
datarows 15
range 1.53600000 1.59200000
endheader

                time	     ground_force_vx	     ground_force_vy	     ground_force_vz	     ground_force_px	     ground_force_py	     ground_force_pz	   l_ground_force_vx	   l_ground_force_vy	   l_ground_force_vz	   l_ground_force_px	   l_ground_force_py	   l_ground_force_pz	     ground_torque_x	     ground_torque_y	     ground_torque_z	   l_ground_torque_x	   l_ground_torque_y	   l_ground_torque_z	
          1.53600000	         94.64231372	        704.82721461	        -35.76803425	          0.80336080	          0.00000000	          0.12229596	          0.00000000	          0.00000000	          0.00000000	          0.00000000	          0.00000000	          0.00000000	          0.00000000	          4.45861843	          0.00000000	          0.00000000	          0.00000000	          0.00000000	
          1.54000000	         99.35941232	        714.26614892	        -36.04380033	          0.80374858	          0.00000000	          0.12214253	          0.00000000	          0.00000000	          0.00000000	          0.00000000	          0.00000000	          0.00000000	          0.00000000	          4.46388944	          0.00000000	          0.00000000	          0.00000000	          0.00000000	
          1.54400000	        104.02369579	        722.91462858	        -36.04742262	          0.80416760	          0.00000000	          0.12197865	          0.00000000	          0.00000000	          0.00000000	          0.00000000	          0.00000000	          0.00000000	          0.00000000	          4.44258936	          0.00000000	          0.00000000	          0.00000000	          0.00000000	
          1.54800000	        108.73629880	        730.65801903	        -35.95999214	          0.80460015	          0.00000000	          0.12180896	          0.00000000	          0.00000000	          0.00000000	          0.00000000	          0.00000000	          0.00000000	          0.00000000	          4.40994671	          0.00000000	          0.00000000	          0.00000000	          0.00000000	
          1.55200000	        113.58442605	        737.38996797	        -35.96729275	          0.80503682	          0.00000000	          0.12163432	          0.00000000	          0.00000000	          0.00000000	          0.00000000	          0.00000000	          0.00000000	          0.00000000	          4.38213634	          0.00000000	          0.00000000	          0.00000000	          0.00000000	
          1.55600000	        118.62565794	        743.02724835	        -36.23057075	          0.80547253	          0.00000000	          0.12145601	          0.00000000	          0.00000000	          0.00000000	          0.00000000	          0.00000000	          0.00000000	          0.00000000	          4.37223531	          0.00000000	          0.00000000	          0.00000000	          0.00000000	
          1.56000000	        123.87825175	        747.51091045	        -36.85995903	          0.80590356	          0.00000000	          0.12127969	          0.00000000	          0.00000000	          0.00000000	          0.00000000	          0.00000000	          0.00000000	          0.00000000	          4.38706171	          0.00000000	          0.00000000	          0.00000000	          0.00000000	
          1.56400000	        129.31873904	        750.79759498	        -37.89066362	          0.80633045	          0.00000000	          0.12111277	          0.00000000	          0.00000000	          0.00000000	          0.00000000	          0.00000000	          0.00000000	          0.00000000	          4.42609315	          0.00000000	          0.00000000	          0.00000000	          0.00000000	
          1.56800000	        134.88457573	        752.85648117	        -39.26930289	          0.80674812	          0.00000000	          0.12096027	          0.00000000	          0.00000000	          0.00000000	          0.00000000	          0.00000000	          0.00000000	          0.00000000	          4.48261684	          0.00000000	          0.00000000	          0.00000000	          0.00000000	
          1.57200000	        140.47799549	        753.67405794	        -40.85949569	          0.80714857	          0.00000000	          0.12082346	          0.00000000	          0.00000000	          0.00000000	          0.00000000	          0.00000000	          0.00000000	          0.00000000	          4.54626373	          0.00000000	          0.00000000	          0.00000000	          0.00000000	
          1.57600000	        145.97395551	        753.25714797	        -42.46775566	          0.80753842	          0.00000000	          0.12069934	          0.00000000	          0.00000000	          0.00000000	          0.00000000	          0.00000000	          0.00000000	          0.00000000	          4.60573606	          0.00000000	          0.00000000	          0.00000000	          0.00000000	
          1.58000000	        151.23469789	        751.62916559	        -43.88193114	          0.80793127	          0.00000000	          0.12057953	          0.00000000	          0.00000000	          0.00000000	          0.00000000	          0.00000000	          0.00000000	          0.00000000	          4.65091405	          0.00000000	          0.00000000	          0.00000000	          0.00000000	
          1.58400000	        156.13483190	        748.82479688	        -44.91302130	          0.80834510	          0.00000000	          0.12045351	          0.00000000	          0.00000000	          0.00000000	          0.00000000	          0.00000000	          0.00000000	          0.00000000	          4.67418332	          0.00000000	          0.00000000	          0.00000000	          0.00000000	
          1.58800000	        160.59340629	        744.89094373	        -45.43011627	          0.80880312	          0.00000000	          0.12031024	          0.00000000	          0.00000000	          0.00000000	          0.00000000	          0.00000000	          0.00000000	          0.00000000	          4.67120770	          0.00000000	          0.00000000	          0.00000000	          0.00000000	
          1.59200000	        164.59578433	        739.88889115	        -45.37759280	          0.80930689	          0.00000000	          0.12013806	          0.00000000	          0.00000000	          0.00000000	          0.00000000	          0.00000000	          0.00000000	          0.00000000	          4.64128216	          0.00000000	          0.00000000	          0.00000000	          0.00000000	
